<mxfile host="app.diagrams.net" agent="Mozilla/5.0 (Windows NT 10.0; Win64; x64) AppleWebKit/537.36 (KHTML, like Gecko) Chrome/139.0.0.0 Safari/537.36" version="28.1.0" pages="2">
  <diagram name="Page-1" id="DfrMqY7XnEL8-Xk1zpQx">
    <mxGraphModel dx="2102" dy="1278" grid="0" gridSize="10" guides="1" tooltips="1" connect="1" arrows="1" fold="1" page="0" pageScale="1" pageWidth="827" pageHeight="1169" background="light-dark(#FFFFFF,#FFFFFF)" math="0" shadow="1">
      <root>
        <mxCell id="0" />
        <mxCell id="1" parent="0" />
        <mxCell id="nSVmiMaqPRx9voF1O792-14" style="edgeStyle=orthogonalEdgeStyle;rounded=0;orthogonalLoop=1;jettySize=auto;html=1;strokeColor=#005700;fontColor=#FFFFFF;shape=link;fillColor=#008a00;entryX=0.006;entryY=0.378;entryDx=0;entryDy=0;entryPerimeter=0;" edge="1" parent="1" source="rWbc0MuityBc3C-fL2WP-1" target="rWbc0MuityBc3C-fL2WP-32">
          <mxGeometry relative="1" as="geometry">
            <mxPoint x="330" y="497" as="targetPoint" />
            <Array as="points">
              <mxPoint x="192" y="497" />
              <mxPoint x="336" y="497" />
            </Array>
          </mxGeometry>
        </mxCell>
        <mxCell id="rWbc0MuityBc3C-fL2WP-1" value="Librarian" style="swimlane;fontStyle=1;align=center;verticalAlign=top;childLayout=stackLayout;horizontal=1;startSize=26;horizontalStack=0;resizeParent=1;resizeParentMax=0;resizeLast=0;collapsible=1;marginBottom=0;whiteSpace=wrap;html=1;strokeColor=#FFFFFF;fontColor=#1A1A1A;fillColor=#EEEEEE;" vertex="1" parent="1">
          <mxGeometry x="108" y="94" width="160" height="195" as="geometry" />
        </mxCell>
        <mxCell id="rWbc0MuityBc3C-fL2WP-2" value="&lt;div&gt;&lt;font style=&quot;color: light-dark(rgb(0, 0, 0), rgb(0, 0, 0));&quot;&gt;-id&lt;/font&gt;&lt;/div&gt;&lt;div&gt;&lt;font style=&quot;color: light-dark(rgb(0, 0, 0), rgb(0, 0, 0));&quot;&gt;-name&lt;/font&gt;&lt;/div&gt;" style="text;align=left;verticalAlign=top;spacingLeft=4;spacingRight=4;overflow=hidden;rotatable=0;points=[[0,0.5],[1,0.5]];portConstraint=eastwest;whiteSpace=wrap;html=1;" vertex="1" parent="rWbc0MuityBc3C-fL2WP-1">
          <mxGeometry y="26" width="160" height="43" as="geometry" />
        </mxCell>
        <mxCell id="rWbc0MuityBc3C-fL2WP-3" value="" style="line;strokeWidth=1;fillColor=none;align=left;verticalAlign=middle;spacingTop=-1;spacingLeft=3;spacingRight=3;rotatable=0;labelPosition=right;points=[];portConstraint=eastwest;strokeColor=inherit;fontColor=#1A1A1A;" vertex="1" parent="rWbc0MuityBc3C-fL2WP-1">
          <mxGeometry y="69" width="160" height="8" as="geometry" />
        </mxCell>
        <mxCell id="rWbc0MuityBc3C-fL2WP-4" value="&lt;font style=&quot;color: light-dark(rgb(0, 0, 0), rgb(0, 0, 0));&quot;&gt;+login()&lt;br&gt;+addBook()&lt;/font&gt;&lt;div&gt;&lt;font style=&quot;color: light-dark(rgb(0, 0, 0), rgb(0, 0, 0));&quot;&gt;&lt;font&gt;+updateBook&lt;/font&gt;&lt;span style=&quot;background-color: transparent;&quot;&gt;()&lt;br&gt;+removeBook()&lt;/span&gt;&lt;/font&gt;&lt;/div&gt;&lt;div&gt;&lt;font style=&quot;color: light-dark(rgb(0, 0, 0), rgb(0, 0, 0));&quot;&gt;+verifyMember()&lt;br&gt;+logout()&lt;br&gt;+Search()&lt;/font&gt;&lt;/div&gt;" style="text;align=left;verticalAlign=top;spacingLeft=4;spacingRight=4;overflow=hidden;rotatable=0;points=[[0,0.5],[1,0.5]];portConstraint=eastwest;whiteSpace=wrap;html=1;" vertex="1" parent="rWbc0MuityBc3C-fL2WP-1">
          <mxGeometry y="77" width="160" height="118" as="geometry" />
        </mxCell>
        <mxCell id="rWbc0MuityBc3C-fL2WP-39" style="edgeStyle=none;rounded=0;orthogonalLoop=1;jettySize=auto;html=1;exitX=0.5;exitY=0;exitDx=0;exitDy=0;strokeColor=#005700;fontColor=#FFFFFF;shape=link;fillColor=#008a00;entryX=0.199;entryY=-0.003;entryDx=0;entryDy=0;entryPerimeter=0;" edge="1" parent="1" target="rWbc0MuityBc3C-fL2WP-1">
          <mxGeometry relative="1" as="geometry">
            <mxPoint x="586" y="93" as="sourcePoint" />
            <mxPoint x="141" y="92" as="targetPoint" />
            <Array as="points">
              <mxPoint x="586" y="-23" />
              <mxPoint x="586" y="-141" />
              <mxPoint x="141" y="-141" />
            </Array>
          </mxGeometry>
        </mxCell>
        <mxCell id="nSVmiMaqPRx9voF1O792-11" style="edgeStyle=orthogonalEdgeStyle;rounded=0;orthogonalLoop=1;jettySize=auto;html=1;exitX=0.5;exitY=0;exitDx=0;exitDy=0;entryX=1;entryY=0.5;entryDx=0;entryDy=0;strokeColor=#005700;fontColor=#FFFFFF;shape=link;fillColor=#008a00;" edge="1" parent="1" source="rWbc0MuityBc3C-fL2WP-8" target="rWbc0MuityBc3C-fL2WP-21">
          <mxGeometry relative="1" as="geometry" />
        </mxCell>
        <mxCell id="rWbc0MuityBc3C-fL2WP-8" value="Book" style="swimlane;fontStyle=1;align=center;verticalAlign=top;childLayout=stackLayout;horizontal=1;startSize=26;horizontalStack=0;resizeParent=1;resizeParentMax=0;resizeLast=0;collapsible=1;marginBottom=0;whiteSpace=wrap;html=1;strokeColor=#FFFFFF;fontColor=#1A1A1A;fillColor=#EEEEEE;" vertex="1" parent="1">
          <mxGeometry x="552" y="94" width="160" height="165" as="geometry" />
        </mxCell>
        <mxCell id="rWbc0MuityBc3C-fL2WP-9" value="&lt;font style=&quot;color: light-dark(rgb(0, 0, 0), rgb(0, 0, 0));&quot;&gt;-bookName&amp;nbsp;&lt;br&gt;-bookId&lt;br&gt;-category&amp;nbsp;&lt;br&gt;&lt;/font&gt;&lt;div&gt;&lt;font style=&quot;color: light-dark(rgb(0, 0, 0), rgb(0, 0, 0));&quot;&gt;&lt;br&gt;&lt;/font&gt;&lt;/div&gt;" style="text;align=left;verticalAlign=top;spacingLeft=4;spacingRight=4;overflow=hidden;rotatable=0;points=[[0,0.5],[1,0.5]];portConstraint=eastwest;whiteSpace=wrap;html=1;" vertex="1" parent="rWbc0MuityBc3C-fL2WP-8">
          <mxGeometry y="26" width="160" height="59" as="geometry" />
        </mxCell>
        <mxCell id="rWbc0MuityBc3C-fL2WP-10" value="" style="line;strokeWidth=1;fillColor=none;align=left;verticalAlign=middle;spacingTop=-1;spacingLeft=3;spacingRight=3;rotatable=0;labelPosition=right;points=[];portConstraint=eastwest;strokeColor=inherit;fontColor=#1A1A1A;" vertex="1" parent="rWbc0MuityBc3C-fL2WP-8">
          <mxGeometry y="85" width="160" height="8" as="geometry" />
        </mxCell>
        <mxCell id="rWbc0MuityBc3C-fL2WP-11" value="&lt;font style=&quot;color: light-dark(rgb(0, 0, 0), rgb(0, 0, 0));&quot;&gt;+displayerBook()&lt;/font&gt;&lt;div&gt;&lt;font style=&quot;color: light-dark(rgb(0, 0, 0), rgb(0, 0, 0));&quot;&gt;+updateBookStatus()&lt;/font&gt;&lt;/div&gt;" style="text;align=left;verticalAlign=top;spacingLeft=4;spacingRight=4;overflow=hidden;rotatable=0;points=[[0,0.5],[1,0.5]];portConstraint=eastwest;whiteSpace=wrap;html=1;" vertex="1" parent="rWbc0MuityBc3C-fL2WP-8">
          <mxGeometry y="93" width="160" height="72" as="geometry" />
        </mxCell>
        <mxCell id="rWbc0MuityBc3C-fL2WP-12" value="Student" style="swimlane;fontStyle=1;align=center;verticalAlign=top;childLayout=stackLayout;horizontal=1;startSize=26;horizontalStack=0;resizeParent=1;resizeParentMax=0;resizeLast=0;collapsible=1;marginBottom=0;whiteSpace=wrap;html=1;strokeColor=#FFFFFF;fontColor=#1A1A1A;fillColor=#EEEEEE;" vertex="1" parent="1">
          <mxGeometry x="335" y="139" width="160" height="208" as="geometry" />
        </mxCell>
        <mxCell id="rWbc0MuityBc3C-fL2WP-13" value="&lt;font style=&quot;color: light-dark(rgb(0, 0, 0), rgb(0, 0, 0));&quot;&gt;-userName&amp;nbsp;&lt;br&gt;-password&amp;nbsp;&lt;br&gt;-name&amp;nbsp;&lt;br&gt;-email&amp;nbsp;&lt;br&gt;&lt;/font&gt;&lt;div&gt;&lt;font style=&quot;color: light-dark(rgb(0, 0, 0), rgb(0, 0, 0));&quot;&gt;&lt;br&gt;&lt;/font&gt;&lt;/div&gt;" style="text;align=left;verticalAlign=top;spacingLeft=4;spacingRight=4;overflow=hidden;rotatable=0;points=[[0,0.5],[1,0.5]];portConstraint=eastwest;whiteSpace=wrap;html=1;" vertex="1" parent="rWbc0MuityBc3C-fL2WP-12">
          <mxGeometry y="26" width="160" height="69" as="geometry" />
        </mxCell>
        <mxCell id="rWbc0MuityBc3C-fL2WP-14" value="" style="line;strokeWidth=1;fillColor=none;align=left;verticalAlign=middle;spacingTop=-1;spacingLeft=3;spacingRight=3;rotatable=0;labelPosition=right;points=[];portConstraint=eastwest;strokeColor=inherit;fontColor=#1A1A1A;" vertex="1" parent="rWbc0MuityBc3C-fL2WP-12">
          <mxGeometry y="95" width="160" height="8" as="geometry" />
        </mxCell>
        <mxCell id="rWbc0MuityBc3C-fL2WP-15" value="&lt;font style=&quot;color: light-dark(rgb(0, 0, 0), rgb(0, 0, 0));&quot;&gt;+login()&lt;br&gt;+accountDetails()&lt;br&gt;+searchBook()&lt;br&gt;+borrowBook()&lt;/font&gt;&lt;div&gt;&lt;font style=&quot;color: light-dark(rgb(0, 0, 0), rgb(0, 0, 0));&quot;&gt;+returnBook()&lt;br&gt;+logout()&lt;/font&gt;&lt;/div&gt;" style="text;align=left;verticalAlign=top;spacingLeft=4;spacingRight=4;overflow=hidden;rotatable=0;points=[[0,0.5],[1,0.5]];portConstraint=eastwest;whiteSpace=wrap;html=1;" vertex="1" parent="rWbc0MuityBc3C-fL2WP-12">
          <mxGeometry y="103" width="160" height="105" as="geometry" />
        </mxCell>
        <mxCell id="rWbc0MuityBc3C-fL2WP-20" value="Library Management System" style="swimlane;fontStyle=1;align=center;verticalAlign=top;childLayout=stackLayout;horizontal=1;startSize=35;horizontalStack=0;resizeParent=1;resizeParentMax=0;resizeLast=0;collapsible=1;marginBottom=0;whiteSpace=wrap;html=1;strokeColor=#FFFFFF;fontColor=#1A1A1A;fillColor=#EEEEEE;" vertex="1" parent="1">
          <mxGeometry x="333" y="-102" width="160" height="193" as="geometry" />
        </mxCell>
        <mxCell id="rWbc0MuityBc3C-fL2WP-21" value="&lt;div&gt;&lt;font style=&quot;color: light-dark(rgb(0, 0, 0), rgb(0, 0, 0));&quot;&gt;-id&lt;/font&gt;&lt;/div&gt;&lt;div&gt;&lt;font style=&quot;color: light-dark(rgb(0, 0, 0), rgb(0, 0, 0));&quot;&gt;-name&lt;/font&gt;&lt;/div&gt;&lt;div&gt;&lt;font style=&quot;color: light-dark(rgb(0, 0, 0), rgb(0, 0, 0));&quot;&gt;-userName&lt;/font&gt;&lt;/div&gt;&lt;div&gt;&lt;font style=&quot;color: light-dark(rgb(0, 0, 0), rgb(0, 0, 0));&quot;&gt;-password&lt;/font&gt;&lt;/div&gt;&lt;div&gt;&lt;font style=&quot;color: light-dark(rgb(0, 0, 0), rgb(0, 0, 0));&quot;&gt;-phoneNumber&lt;/font&gt;&lt;/div&gt;&lt;div&gt;&lt;font style=&quot;color: light-dark(rgb(0, 0, 0), rgb(0, 0, 0));&quot;&gt;-email&lt;/font&gt;&lt;/div&gt;&lt;div&gt;&lt;font color=&quot;#000000&quot;&gt;&lt;br&gt;&lt;/font&gt;&lt;/div&gt;" style="text;align=left;verticalAlign=top;spacingLeft=4;spacingRight=4;overflow=hidden;rotatable=0;points=[[0,0.5],[1,0.5]];portConstraint=eastwest;whiteSpace=wrap;html=1;" vertex="1" parent="rWbc0MuityBc3C-fL2WP-20">
          <mxGeometry y="35" width="160" height="97" as="geometry" />
        </mxCell>
        <mxCell id="rWbc0MuityBc3C-fL2WP-22" value="" style="line;strokeWidth=1;fillColor=none;align=left;verticalAlign=middle;spacingTop=-1;spacingLeft=3;spacingRight=3;rotatable=0;labelPosition=right;points=[];portConstraint=eastwest;strokeColor=inherit;fontColor=#1A1A1A;" vertex="1" parent="rWbc0MuityBc3C-fL2WP-20">
          <mxGeometry y="132" width="160" height="8" as="geometry" />
        </mxCell>
        <mxCell id="rWbc0MuityBc3C-fL2WP-23" value="&lt;font style=&quot;color: light-dark(rgb(0, 0, 0), rgb(0, 0, 0));&quot;&gt;+createAccount()&lt;/font&gt;&lt;div&gt;&lt;font style=&quot;color: light-dark(rgb(0, 0, 0), rgb(0, 0, 0));&quot;&gt;+login()&lt;/font&gt;&lt;/div&gt;&lt;div&gt;&lt;font style=&quot;color: light-dark(rgb(0, 0, 0), rgb(0, 0, 0));&quot;&gt;+logout()&lt;/font&gt;&lt;/div&gt;" style="text;align=left;verticalAlign=top;spacingLeft=4;spacingRight=4;overflow=hidden;rotatable=0;points=[[0,0.5],[1,0.5]];portConstraint=eastwest;whiteSpace=wrap;html=1;" vertex="1" parent="rWbc0MuityBc3C-fL2WP-20">
          <mxGeometry y="140" width="160" height="53" as="geometry" />
        </mxCell>
        <mxCell id="rWbc0MuityBc3C-fL2WP-29" value="Library Database" style="swimlane;fontStyle=1;align=center;verticalAlign=top;childLayout=stackLayout;horizontal=1;startSize=26;horizontalStack=0;resizeParent=1;resizeParentMax=0;resizeLast=0;collapsible=1;marginBottom=0;whiteSpace=wrap;html=1;strokeColor=#FFFFFF;fontColor=#1A1A1A;fillColor=#EEEEEE;" vertex="1" parent="1">
          <mxGeometry x="335" y="401" width="160" height="151" as="geometry" />
        </mxCell>
        <mxCell id="rWbc0MuityBc3C-fL2WP-30" value="&lt;div&gt;&lt;font style=&quot;color: light-dark(rgb(0, 0, 0), rgb(0, 0, 0));&quot;&gt;-listOfBooks&lt;/font&gt;&lt;/div&gt;" style="text;align=left;verticalAlign=top;spacingLeft=4;spacingRight=4;overflow=hidden;rotatable=0;points=[[0,0.5],[1,0.5]];portConstraint=eastwest;whiteSpace=wrap;html=1;" vertex="1" parent="rWbc0MuityBc3C-fL2WP-29">
          <mxGeometry y="26" width="160" height="31" as="geometry" />
        </mxCell>
        <mxCell id="rWbc0MuityBc3C-fL2WP-31" value="" style="line;strokeWidth=1;fillColor=none;align=left;verticalAlign=middle;spacingTop=-1;spacingLeft=3;spacingRight=3;rotatable=0;labelPosition=right;points=[];portConstraint=eastwest;strokeColor=inherit;fontColor=#1A1A1A;" vertex="1" parent="rWbc0MuityBc3C-fL2WP-29">
          <mxGeometry y="57" width="160" height="8" as="geometry" />
        </mxCell>
        <mxCell id="rWbc0MuityBc3C-fL2WP-32" value="&lt;font style=&quot;color: light-dark(rgb(0, 0, 0), rgb(0, 0, 0));&quot;&gt;+add()&lt;/font&gt;&lt;div&gt;&lt;font style=&quot;color: light-dark(rgb(0, 0, 0), rgb(0, 0, 0));&quot;&gt;+delete()&lt;/font&gt;&lt;/div&gt;&lt;div&gt;&lt;font style=&quot;color: light-dark(rgb(0, 0, 0), rgb(0, 0, 0));&quot;&gt;+update()&lt;/font&gt;&lt;/div&gt;&lt;div&gt;&lt;font style=&quot;color: light-dark(rgb(0, 0, 0), rgb(0, 0, 0));&quot;&gt;+search()&lt;/font&gt;&lt;/div&gt;&lt;div&gt;&lt;font style=&quot;color: light-dark(rgb(0, 0, 0), rgb(0, 0, 0));&quot;&gt;+Display()&lt;/font&gt;&lt;/div&gt;" style="text;align=left;verticalAlign=top;spacingLeft=4;spacingRight=4;overflow=hidden;rotatable=0;points=[[0,0.5],[1,0.5]];portConstraint=eastwest;whiteSpace=wrap;html=1;" vertex="1" parent="rWbc0MuityBc3C-fL2WP-29">
          <mxGeometry y="65" width="160" height="86" as="geometry" />
        </mxCell>
        <mxCell id="rWbc0MuityBc3C-fL2WP-35" value="&lt;font style=&quot;color: light-dark(rgb(0, 0, 0), rgb(0, 0, 0));&quot;&gt;1...1&lt;/font&gt;" style="text;html=1;align=center;verticalAlign=middle;resizable=0;points=[];autosize=1;strokeColor=none;fillColor=none;fontColor=#1A1A1A;" vertex="1" parent="1">
          <mxGeometry x="153" y="72" width="41" height="26" as="geometry" />
        </mxCell>
        <mxCell id="rWbc0MuityBc3C-fL2WP-36" value="&lt;font style=&quot;color: light-dark(rgb(0, 0, 0), rgb(0, 0, 0));&quot;&gt;1...1&lt;/font&gt;" style="text;html=1;align=center;verticalAlign=middle;resizable=0;points=[];autosize=1;strokeColor=none;fillColor=none;fontColor=#1A1A1A;" vertex="1" parent="1">
          <mxGeometry x="294" y="-44" width="41" height="26" as="geometry" />
        </mxCell>
        <mxCell id="rWbc0MuityBc3C-fL2WP-37" style="edgeStyle=orthogonalEdgeStyle;rounded=0;orthogonalLoop=1;jettySize=auto;html=1;exitX=0;exitY=0.5;exitDx=0;exitDy=0;entryX=0.939;entryY=0.845;entryDx=0;entryDy=0;entryPerimeter=0;strokeColor=#005700;fontColor=#FFFFFF;shape=link;shadow=1;fillColor=#008a00;" edge="1" parent="1" source="rWbc0MuityBc3C-fL2WP-21" target="rWbc0MuityBc3C-fL2WP-35">
          <mxGeometry relative="1" as="geometry" />
        </mxCell>
        <mxCell id="rWbc0MuityBc3C-fL2WP-41" value="&lt;font style=&quot;color: light-dark(rgb(0, 0, 0), rgb(0, 0, 0));&quot;&gt;1...*&lt;/font&gt;" style="text;html=1;align=center;verticalAlign=middle;resizable=0;points=[];autosize=1;strokeColor=none;fillColor=none;fontColor=#1A1A1A;" vertex="1" parent="1">
          <mxGeometry x="100" y="67" width="39" height="26" as="geometry" />
        </mxCell>
        <mxCell id="rWbc0MuityBc3C-fL2WP-42" value="&lt;font style=&quot;color: light-dark(rgb(0, 0, 0), rgb(0, 0, 0));&quot;&gt;*...1&lt;/font&gt;" style="text;html=1;align=center;verticalAlign=middle;resizable=0;points=[];autosize=1;strokeColor=none;fillColor=none;fontColor=#1A1A1A;" vertex="1" parent="1">
          <mxGeometry x="584" y="72" width="39" height="26" as="geometry" />
        </mxCell>
        <mxCell id="nSVmiMaqPRx9voF1O792-1" style="edgeStyle=none;rounded=0;orthogonalLoop=1;jettySize=auto;html=1;exitX=1;exitY=0.5;exitDx=0;exitDy=0;strokeColor=#005700;fontColor=#FFFFFF;shape=link;fillColor=#008a00;" edge="1" parent="1">
          <mxGeometry relative="1" as="geometry">
            <mxPoint x="496.0000000000001" y="202.5" as="sourcePoint" />
            <mxPoint x="552" y="202" as="targetPoint" />
          </mxGeometry>
        </mxCell>
        <mxCell id="nSVmiMaqPRx9voF1O792-2" value="&lt;font style=&quot;color: light-dark(rgb(0, 0, 0), rgb(0, 0, 0)); font-size: 6px;&quot;&gt;1...1&lt;/font&gt;" style="text;html=1;align=center;verticalAlign=middle;resizable=0;points=[];autosize=1;strokeColor=none;fillColor=none;fontColor=#1A1A1A;dashed=1;" vertex="1" parent="1">
          <mxGeometry x="529" y="178.5" width="30" height="26" as="geometry" />
        </mxCell>
        <mxCell id="nSVmiMaqPRx9voF1O792-3" value="&lt;font style=&quot;color: light-dark(rgb(0, 0, 0), rgb(0, 0, 0)); font-size: 6px;&quot;&gt;1...*&lt;/font&gt;" style="text;html=1;align=center;verticalAlign=middle;resizable=0;points=[];autosize=1;strokeColor=none;fillColor=none;fontColor=#1A1A1A;" vertex="1" parent="1">
          <mxGeometry x="486" y="178.5" width="29" height="26" as="geometry" />
        </mxCell>
        <mxCell id="nSVmiMaqPRx9voF1O792-5" style="edgeStyle=orthogonalEdgeStyle;rounded=0;orthogonalLoop=1;jettySize=auto;html=1;exitX=0.5;exitY=0;exitDx=0;exitDy=0;entryX=0.507;entryY=0.966;entryDx=0;entryDy=0;entryPerimeter=0;strokeColor=#005700;fontColor=#FFFFFF;shape=link;fillColor=#008a00;" edge="1" parent="1" source="rWbc0MuityBc3C-fL2WP-29" target="rWbc0MuityBc3C-fL2WP-23">
          <mxGeometry relative="1" as="geometry">
            <Array as="points">
              <mxPoint x="415" y="369" />
              <mxPoint x="307" y="369" />
              <mxPoint x="307" y="109" />
              <mxPoint x="414" y="109" />
            </Array>
          </mxGeometry>
        </mxCell>
        <mxCell id="nSVmiMaqPRx9voF1O792-6" value="&lt;font style=&quot;color: light-dark(rgb(0, 0, 0), rgb(0, 0, 0));&quot;&gt;1...1&lt;/font&gt;" style="text;html=1;align=center;verticalAlign=middle;resizable=0;points=[];autosize=1;strokeColor=none;fillColor=none;fontColor=#1A1A1A;" vertex="1" parent="1">
          <mxGeometry x="409" y="380" width="41" height="26" as="geometry" />
        </mxCell>
        <mxCell id="nSVmiMaqPRx9voF1O792-7" value="&lt;font style=&quot;color: light-dark(rgb(0, 0, 0), rgb(0, 0, 0));&quot;&gt;1...1&lt;/font&gt;" style="text;html=1;align=center;verticalAlign=middle;resizable=0;points=[];autosize=1;strokeColor=none;fillColor=none;fontColor=#1A1A1A;" vertex="1" parent="1">
          <mxGeometry x="410" y="89" width="41" height="26" as="geometry" />
        </mxCell>
        <mxCell id="nSVmiMaqPRx9voF1O792-8" style="rounded=0;orthogonalLoop=1;jettySize=auto;html=1;exitX=0.75;exitY=0;exitDx=0;exitDy=0;entryX=0.765;entryY=0.983;entryDx=0;entryDy=0;entryPerimeter=0;strokeColor=#005700;fontColor=#FFFFFF;shape=link;fillColor=#008a00;" edge="1" parent="1" source="rWbc0MuityBc3C-fL2WP-12" target="rWbc0MuityBc3C-fL2WP-23">
          <mxGeometry relative="1" as="geometry" />
        </mxCell>
        <mxCell id="nSVmiMaqPRx9voF1O792-12" value="&lt;font style=&quot;color: light-dark(rgb(0, 0, 0), rgb(0, 0, 0));&quot;&gt;1...1&lt;/font&gt;" style="text;html=1;align=center;verticalAlign=middle;resizable=0;points=[];autosize=1;strokeColor=none;fillColor=none;fontColor=#1A1A1A;" vertex="1" parent="1">
          <mxGeometry x="629" y="72" width="41" height="26" as="geometry" />
        </mxCell>
        <mxCell id="nSVmiMaqPRx9voF1O792-13" value="&lt;font style=&quot;color: light-dark(rgb(0, 0, 0), rgb(0, 0, 0));&quot;&gt;1...1&lt;/font&gt;" style="text;html=1;align=center;verticalAlign=middle;resizable=0;points=[];autosize=1;strokeColor=none;fillColor=none;fontColor=#1A1A1A;" vertex="1" parent="1">
          <mxGeometry x="485" y="-44" width="41" height="26" as="geometry" />
        </mxCell>
        <mxCell id="nSVmiMaqPRx9voF1O792-15" value="&lt;font style=&quot;color: light-dark(rgb(0, 0, 0), rgb(0, 0, 0));&quot;&gt;1...*&lt;/font&gt;" style="text;html=1;align=center;verticalAlign=middle;resizable=0;points=[];autosize=1;strokeColor=none;fillColor=none;fontColor=#1A1A1A;" vertex="1" parent="1">
          <mxGeometry x="189" y="289" width="39" height="26" as="geometry" />
        </mxCell>
        <mxCell id="nSVmiMaqPRx9voF1O792-16" value="&lt;font style=&quot;color: light-dark(rgb(0, 0, 0), rgb(0, 0, 0));&quot;&gt;1...*&lt;/font&gt;" style="text;html=1;align=center;verticalAlign=middle;resizable=0;points=[];autosize=1;strokeColor=none;fillColor=none;fontColor=#1A1A1A;" vertex="1" parent="1">
          <mxGeometry x="301" y="469" width="39" height="26" as="geometry" />
        </mxCell>
      </root>
    </mxGraphModel>
  </diagram>
  <diagram id="r6u4Qw9lLI0BNwA2h6Tm" name="Page-2">
    <mxGraphModel dx="1261" dy="527" grid="0" gridSize="10" guides="1" tooltips="1" connect="1" arrows="1" fold="1" page="0" pageScale="1" pageWidth="827" pageHeight="1169" math="0" shadow="0">
      <root>
        <mxCell id="0" />
        <mxCell id="1" parent="0" />
      </root>
    </mxGraphModel>
  </diagram>
</mxfile>
